<?xml version="1.0" encoding="UTF-8" standalone="no"?>
<svg
   xmlns="http://www.w3.org/2000/svg"
   viewBox="0 0 135.46666 135.46666"
   height="512"
   width="512">
  <g>
    <path
       transform="scale(0.26458332)"
       d="M 78.873047 26 C 49.581095 26 26 49.581095 26 78.873047 L 26 433.12695 C 26 462.4189 49.581095 486 78.873047 486 L 433.12695 486 C 462.4189 486 486 462.4189 486 433.12695 L 486 78.873047 C 486 49.581095 462.4189 26 433.12695 26 L 78.873047 26 z M 197.15625 102.90625 L 197.15625 141.65234 C 185.84119 141.88457 178.06869 143.93808 173.83984 147.82422 C 169.49821 151.71003 167.32617 157.7099 167.32617 165.82422 L 167.32617 217.08398 L 167.32617 218.96875 C 167.32617 228.7979 163.95413 236.74137 157.21094 242.79883 C 153.18546 246.48261 148.24386 251.78588 142.1582 254.9707 C 158.56864 259.27552 166.77878 277.93466 167.32617 295.08789 L 167.32617 346.34766 C 167.32617 354.34785 169.44108 360.28997 173.66992 364.17578 C 177.89876 368.0606 185.72706 370.17782 197.15625 370.51953 L 197.15625 409.09375 C 178.06956 409.09375 163.09814 407.55015 152.24023 404.46484 C 141.38266 401.4927 133.66758 396.69352 129.0957 390.06445 C 124.40904 383.54983 122.06641 374.00762 122.06641 361.43555 L 122.06641 306.91797 C 122.06641 297.93844 119.84975 290.77902 111.60938 283.60156 C 105.15514 277.98036 93.378609 276.40234 78.177734 276.40234 L 78.177734 235.42773 C 92.4643 235.42773 103.38078 233.08705 110.92383 228.40039 C 118.35275 223.71406 122.06641 215.82639 122.06641 204.74023 L 122.06641 150.73828 C 122.06641 137.93763 124.40971 128.28024 129.0957 121.76562 C 133.7817 115.25102 141.55258 110.50765 152.41016 107.53516 C 163.15361 104.44887 178.06956 102.90625 197.15625 102.90625 z M 314.84375 102.90625 C 342.73082 102.90625 362.21853 106.50669 373.30469 113.70703 C 384.39086 120.79292 389.93359 133.13523 389.93359 150.73633 L 389.93359 204.74023 C 389.93359 214.6835 393.70502 222.28374 401.24805 227.54102 C 408.67697 232.79962 419.53607 235.42773 433.82227 235.42773 L 433.82227 276.40039 C 419.42158 276.40039 408.50739 278.915 401.07812 283.94336 C 394.71417 288.40775 389.93359 297.15587 389.93359 306.91602 L 389.93359 361.43359 C 389.93359 378.92025 384.39086 391.20707 373.30469 398.29297 C 362.21853 405.49331 342.73082 409.09375 314.84375 409.09375 L 314.84375 370.51953 C 326.15848 370.17782 333.98907 368.00384 338.33203 364.00391 C 342.56187 360.00397 344.67383 354.11766 344.67383 346.3457 L 344.67383 295.08789 C 345.18008 279.22318 352.27911 262.06914 366.37891 256.16992 C 351.7576 250.64393 344.67383 233.70445 344.67383 218.625 L 344.67383 217.08398 L 344.67383 165.82227 C 344.67383 158.05064 342.56087 152.16628 338.33203 148.16602 C 334.10319 144.16608 326.27294 141.9921 314.84375 141.65039 L 314.84375 102.90625 z M 201.24414 154.99219 L 310.75586 154.99219 L 310.75586 198.53711 L 201.24414 198.53711 L 201.24414 154.99219 z M 231.99023 234.23047 L 280.00977 234.23047 L 280.00977 277.77539 L 231.99023 277.77539 L 231.99023 234.23047 z M 201.24414 313.46875 L 310.75586 313.46875 L 310.75586 357.01367 L 201.24414 357.01367 L 201.24414 313.46875 z "
       style="fill:#3dbfe0;fill-opacity:1;stroke-width:19.4294;stroke-linecap:round;stroke-linejoin:round"
       id="rect871-4" />
  </g>
</svg>
